<svg version="1.1" xmlns="http://www.w3.org/2000/svg" xmlns:xlink="http://www.w3.org/1999/xlink" x="0px" y="0px"
	 viewBox="0 0 411.3 59.3" style="enable-background:new 0 0 411.3 59.3;" xml:space="preserve">
<style type="text/css">
	.st0{display:none;}
	.st1{display:inline;stroke:#000105;stroke-miterlimit:10;}
	.st2{fill:none;stroke:#623FE3;stroke-width:2;stroke-miterlimit:10;}
	.st3{fill:none;stroke:#FFEF27;stroke-width:2;stroke-miterlimit:10;}
	.st4{fill:none;stroke:#F30050;stroke-width:2;stroke-miterlimit:10;}
	.st5{fill:none;stroke:#FF5A26;stroke-width:2;stroke-miterlimit:10;}
	.st6{fill:none;stroke:#33BD87;stroke-width:2;stroke-miterlimit:10;}


	path {
		stroke-dasharray: 360;
		stroke-dashoffset: 0;
		-webkit-animation: dash 6s ease-in-out forwards;
		-o-animation: dash 6s ease-in-out forwards;
		-moz-animation: dash 6s ease-in-out forwards;
		animation: dash 6s ease-in-out forwards;
	}

	@keyframes dash {
		from {
			stroke-dashoffset: 360;
		}
		to {
			stroke-dashoffset: 0;
		}
	}

</style>

<g id="Calque_1">
	<g>
		<path class="st2" d="M39.9,2.9c0.5,0.5,0.7,1.2,0.7,2.1v42.6c0,0.9-0.2,1.5-0.7,2.1c-0.5,0.5-1.1,0.8-2,0.8c-0.9,0-1.5-0.3-2-0.8
			c-0.5-0.5-0.7-1.2-0.7-2.1V28.3H6.7v19.3c0,0.9-0.2,1.5-0.7,2.1c-0.5,0.5-1.2,0.8-2,0.8c-0.9,0-1.5-0.3-2-0.8
			c-0.5-0.5-0.7-1.2-0.7-2.1V5c0-0.9,0.2-1.5,0.7-2.1c0.5-0.5,1.1-0.8,2-0.8c0.9,0,1.5,0.3,2,0.8C6.4,3.4,6.7,4.1,6.7,5v18.6h28.5V5
			c0-0.9,0.2-1.5,0.7-2.1c0.5-0.5,1.2-0.8,2-0.8C38.8,2.1,39.5,2.4,39.9,2.9z"/>
		<path class="st3" d="M51.7,8.5c-0.7-0.6-1-1.5-1-2.5c0-1,0.3-1.8,1-2.4c0.7-0.6,1.6-0.9,2.6-0.9s2,0.3,2.6,0.9C57.7,4.2,58,5,58,6
			c0,1-0.3,1.9-1,2.5c-0.7,0.6-1.6,0.9-2.6,0.9S52.4,9.1,51.7,8.5z M52.4,49.7c-0.5-0.5-0.8-1.1-0.8-2V19.2c0-0.9,0.3-1.5,0.8-2
			c0.5-0.5,1.2-0.7,2-0.7s1.5,0.2,2,0.7c0.5,0.5,0.7,1.1,0.7,2v28.5c0,0.9-0.2,1.6-0.7,2c-0.5,0.5-1.1,0.7-2,0.7
			S52.9,50.2,52.4,49.7z"/>
		<path class="st4" d="M72.6,44.1c0.7,0.9,1,2.2,1,4c0,3.6-1.1,6.6-3.4,9c-0.5,0.5-1,0.7-1.6,0.7c-0.5,0-0.9-0.2-1.2-0.5
			c-0.4-0.3-0.5-0.7-0.5-1.2c0-0.5,0.2-0.9,0.5-1.3c1.2-1.2,1.9-2.7,2.2-4.5c-1-0.1-1.8-0.5-2.5-1.1c-0.7-0.7-1-1.5-1-2.5
			c0-1.1,0.3-2,1-2.8c0.7-0.7,1.6-1.1,2.6-1.1C70.9,42.8,71.9,43.2,72.6,44.1z"/>
		<path class="st5" d="M100.3,8.5c-0.7-0.6-1-1.5-1-2.5c0-1,0.3-1.8,1-2.4c0.7-0.6,1.6-0.9,2.6-0.9s2,0.3,2.6,0.9
			c0.7,0.6,1,1.4,1,2.4c0,1-0.3,1.9-1,2.5c-0.7,0.6-1.6,0.9-2.6,0.9S101,9.1,100.3,8.5z M100.9,49.7c-0.5-0.5-0.8-1.1-0.8-2V19.2
			c0-0.9,0.3-1.5,0.8-2c0.5-0.5,1.2-0.7,2-0.7s1.5,0.2,2,0.7c0.5,0.5,0.7,1.1,0.7,2v28.5c0,0.9-0.2,1.6-0.7,2
			c-0.5,0.5-1.1,0.7-2,0.7S101.4,50.2,100.9,49.7z"/>
		<path class="st5" d="M121.1,3.5c0.7,0.9,1,2.2,1,4c0,3.6-1.1,6.6-3.4,9c-0.5,0.5-0.9,0.7-1.5,0.7c-0.5,0-0.9-0.2-1.3-0.5
			c-0.4-0.3-0.5-0.7-0.5-1.2c0-0.5,0.2-0.9,0.5-1.3c1.2-1.2,1.9-2.7,2.2-4.5c-1-0.1-1.8-0.5-2.5-1.1c-0.7-0.7-1-1.5-1-2.6
			c0-1.1,0.3-2,1-2.7c0.7-0.7,1.6-1,2.6-1C119.5,2.1,120.4,2.6,121.1,3.5z"/>
		<path class="st6" d="M178.8,29.4v18.3c0,0.9-0.2,1.5-0.7,2s-1.1,0.7-2,0.7s-1.5-0.2-2-0.7c-0.5-0.5-0.8-1.1-0.8-2V29.6
			c0-3-0.5-5.2-1.6-6.6s-2.8-2-5.1-2c-2.7,0-4.9,0.9-6.5,2.8c-1.6,1.8-2.4,4.3-2.4,7.5v16.5c0,0.9-0.3,1.5-0.8,2
			c-0.5,0.5-1.2,0.7-2,0.7c-0.8,0-1.5-0.2-2-0.7c-0.5-0.5-0.7-1.1-0.7-2V29.6c0-3-0.5-5.2-1.6-6.6s-2.8-2-5.1-2
			c-2.7,0-4.9,0.9-6.4,2.8c-1.6,1.8-2.4,4.3-2.4,7.5v16.5c0,0.9-0.2,1.5-0.7,2c-0.5,0.5-1.1,0.7-2,0.7s-1.5-0.2-2-0.7
			c-0.5-0.5-0.8-1.1-0.8-2V19.2c0-0.8,0.3-1.5,0.8-2c0.5-0.5,1.2-0.7,2-0.7c0.8,0,1.4,0.2,1.9,0.7c0.5,0.5,0.7,1.1,0.7,1.9v3.2
			c1-1.9,2.4-3.4,4.1-4.5c1.8-1,3.8-1.6,6.1-1.6c5.1,0,8.5,2.2,10.1,6.5c0.9-2,2.4-3.6,4.3-4.7c1.9-1.2,4.1-1.8,6.6-1.8
			C175.2,16.4,178.8,20.7,178.8,29.4z"/>
		<path class="st2" d="M240.4,29.7c1.5,2,2.3,4.5,2.3,7.4c0,4.2-1.4,7.4-4.1,9.6c-2.7,2.2-6.6,3.3-11.7,3.3h-17
			c-0.9,0-1.5-0.2-2.1-0.7c-0.5-0.5-0.8-1.1-0.8-2V5.2c0-0.8,0.3-1.5,0.8-2c0.5-0.5,1.2-0.7,2.1-0.7h16.3c4.9,0,8.7,1.1,11.4,3.2
			s4.1,5.2,4.1,9.2c0,2.6-0.7,4.8-2,6.6c-1.3,1.8-3.2,3.2-5.6,4.1C236.8,26.4,238.9,27.7,240.4,29.7z M212.5,23.6h12.8
			c3.6,0,6.2-0.7,8.1-2.2c1.8-1.4,2.7-3.5,2.7-6.3c0-5.4-3.6-8.1-10.8-8.1h-12.8V23.6z M234.6,43.4c1.8-1.4,2.7-3.5,2.7-6.4
			c0-5.9-3.6-8.8-10.9-8.8h-13.8v17.3h13.8C230.1,45.5,232.9,44.8,234.6,43.4z"/>
		<path class="st4" d="M278.5,43.1c0.4,0.4,0.5,0.9,0.5,1.6c0,1.1-0.8,2.2-2.4,3.1c-1.6,0.9-3.3,1.7-5.1,2.1s-3.6,0.7-5.3,0.7
			c-5.1,0-9.1-1.5-12.1-4.5c-2.9-3-4.4-7.2-4.4-12.5c0-3.4,0.7-6.4,2-8.9c1.3-2.6,3.1-4.6,5.5-6c2.4-1.4,5.1-2.2,8.1-2.2
			c4.3,0,7.7,1.4,10.2,4.2c2.5,2.8,3.8,6.6,3.8,11.3c0,0.9-0.2,1.6-0.5,2c-0.4,0.4-0.9,0.6-1.8,0.6h-21.7c0.4,7.7,4.1,11.6,11,11.6
			c1.8,0,3.3-0.2,4.5-0.7s2.6-1.1,4.1-1.9c1.2-0.7,2-1,2.4-1C277.7,42.5,278.1,42.7,278.5,43.1z M258.5,23.4
			c-1.7,1.8-2.8,4.3-3.1,7.6h19.1c-0.1-3.3-0.9-5.9-2.5-7.7c-1.6-1.8-3.8-2.7-6.6-2.7C262.5,20.7,260.2,21.6,258.5,23.4z"/>
		<path class="st3" d="M315.7,29.4v18.3c0,0.9-0.2,1.5-0.7,2s-1.1,0.7-2,0.7c-0.9,0-1.5-0.2-2-0.7c-0.5-0.5-0.7-1.1-0.7-2v-18
			c0-3.1-0.6-5.3-1.8-6.7c-1.2-1.4-3.1-2.1-5.7-2.1c-3,0-5.4,0.9-7.2,2.8c-1.8,1.8-2.7,4.3-2.7,7.5v16.5c0,0.9-0.2,1.5-0.7,2
			s-1.1,0.7-2,0.7c-0.9,0-1.5-0.2-2-0.7s-0.7-1.1-0.7-2V19.2c0-0.8,0.2-1.5,0.7-2c0.5-0.5,1.2-0.7,2-0.7c0.8,0,1.5,0.2,1.9,0.7
			c0.5,0.5,0.7,1.1,0.7,1.9v3.4c1.1-2,2.6-3.6,4.5-4.6s4.1-1.6,6.6-1.6C311.8,16.4,315.7,20.7,315.7,29.4z"/>
		<path class="st6" d="M331.1,48.5c-2.4-1.4-4.2-3.4-5.5-6c-1.3-2.6-1.9-5.6-1.9-9c0-3.4,0.6-6.4,1.9-9s3.1-4.6,5.5-6
			c2.4-1.4,5.1-2.1,8.2-2.1s5.9,0.7,8.2,2.1c2.4,1.4,4.2,3.4,5.5,6s1.9,5.6,1.9,9c0,3.4-0.6,6.4-1.9,9c-1.3,2.6-3.1,4.6-5.5,6
			c-2.4,1.4-5.1,2.1-8.2,2.1S333.5,49.9,331.1,48.5z M346.8,42.8c1.7-2.1,2.6-5.3,2.6-9.4c0-4-0.9-7.1-2.6-9.3
			c-1.8-2.2-4.2-3.3-7.4-3.3c-3.2,0-5.7,1.1-7.4,3.3c-1.8,2.2-2.6,5.3-2.6,9.3c0,4.1,0.9,7.2,2.6,9.3s4.2,3.2,7.5,3.2
			S345.1,45,346.8,42.8z"/>
		<path class="st5" d="M363.3,8.5c-0.7-0.6-1-1.5-1-2.5c0-1,0.3-1.8,1-2.4c0.7-0.6,1.6-0.9,2.6-0.9c1.1,0,2,0.3,2.6,0.9
			c0.7,0.6,1,1.4,1,2.4c0,1-0.3,1.9-1,2.5c-0.7,0.6-1.6,0.9-2.6,0.9C364.9,9.4,364,9.1,363.3,8.5z M364,49.7c-0.5-0.5-0.8-1.1-0.8-2
			V19.2c0-0.9,0.3-1.5,0.8-2c0.5-0.5,1.2-0.7,2-0.7s1.5,0.2,2,0.7c0.5,0.5,0.7,1.1,0.7,2v28.5c0,0.9-0.2,1.6-0.7,2
			c-0.5,0.5-1.1,0.7-2,0.7S364.5,50.2,364,49.7z"/>
		<path class="st2" d="M396.4,48.3c0,0.8-0.3,1.3-0.8,1.7c-0.6,0.4-1.4,0.5-2.5,0.4l-1.8-0.1c-3.6-0.3-6.3-1.4-8-3.2
			c-1.7-1.9-2.6-4.8-2.6-8.6v-17h-4.5c-0.8,0-1.4-0.2-1.8-0.6c-0.4-0.4-0.6-0.9-0.6-1.5c0-0.7,0.2-1.2,0.6-1.6
			c0.4-0.4,1-0.6,1.8-0.6h4.5V9.6c0-0.9,0.2-1.5,0.7-2c0.5-0.5,1.2-0.7,2-0.7c0.8,0,1.5,0.2,2,0.7c0.5,0.5,0.7,1.1,0.7,2v7.6h7.5
			c0.7,0,1.3,0.2,1.7,0.6c0.4,0.4,0.6,0.9,0.6,1.6c0,0.6-0.2,1.1-0.6,1.5c-0.4,0.4-1,0.6-1.7,0.6h-7.5v17.2c0,2.5,0.5,4.3,1.5,5.4
			c1,1.1,2.5,1.7,4.6,1.9l1.8,0.1C395.6,46.2,396.4,47,396.4,48.3z"/>
		<path class="st4" d="M402.8,49.4c-0.7-0.7-1.1-1.6-1.1-2.7c0-1.1,0.4-2,1.1-2.8c0.7-0.7,1.6-1.1,2.7-1.1c1,0,1.9,0.4,2.6,1.1
			c0.7,0.7,1,1.6,1,2.8c0,1.1-0.3,2-1,2.7c-0.7,0.7-1.6,1-2.6,1C404.4,50.4,403.5,50.1,402.8,49.4z"/>
	</g>
</g>
</svg>
